<svg id="acb33f17-a8ce-4bcd-8088-c6a2e8285f8c" data-name="Ebene 1" xmlns="http://www.w3.org/2000/svg" width="1326.31" height="300" viewBox="0 0 1326.31 300"><path d="M1230,76.57V106h31.57V220.33h33.17V106h31.57V76.57ZM0,300H300V0H0ZM15.49,15.49h269v269h-269Zm367,204.84h33.16V76.57H382.5Zm677.76-49.59L1004.7,76.57H970.37V220.33h32.54v-93l56.37,93h33.52V76.57h-32.54ZM115.7,193.41V75.28H90.31S79,85.86,55.78,88.22v20.07H82.7v85.12H55.78v28.21h60l20.54-28.21Zm101.43-85.59-23.51,32.29-23.51-32.29H134.28l41.42,56.9-41.42,56.9h35.83l23.51-32.29,23.51,32.29H253l-41.43-56.9L253,107.82ZM542,170.74,486.46,76.57H452.11V220.33h32.54v-93l56.38,93h33.52V76.57H542Zm620.41-8.53h36V133h-36V106h42.23V76.57h-75.4V220.33h77.07v-29.4h-43.9Zm-251-3.84,1.18-.6c12.27-6.71,19.6-20.75,19.6-37.54,0-29-16.79-43.66-49.93-43.66H835.94V220.33h33.17V166.18h13l26.13,54.15h36.55c-31.09-58-32.57-60.68-32.63-60.8ZM881,138.87h-11.9V104.72h10.28c12.68,0,18.85,5.48,18.85,16.76,0,10.73-6.58,17.39-17.18,17.39ZM759.35,162.21h36V133h-36V106h42.23V76.57H726.19V220.33h77.07v-29.4H759.35ZM602,106h31.56V220.33h33.17V106H698.3V76.57H602Z" fill="#e6332f"/></svg>