<svg width="300" height="45" viewBox="0 0 300 45" fill="none" xmlns="http://www.w3.org/2000/svg">
<path d="M79.4 38.9L84.8 44.6H286.3L286.9 38.9H79.4Z" fill="#CBD538"/>
<path d="M200.3 38.9L205.7 44.6H286.9L292.3 38.9H200.3Z" fill="#18507F"/>
<g opacity="0.4">
<g opacity="0.4">
<path opacity="0.4" d="M194.9 44.7L200.3 39H286.9L286.3 44.7H194.9Z" fill="#18507F"/>
</g>
</g>
<path d="M285.5 30.1H292.2V10.8H299.9V5.50001H277.7L277.5 10.7L285.4 10.8V30.1H285.5ZM268.6 30.5C270.9 30.5 272.9 30.2 274.6 29.5C276.3 28.8 277.6 27.9 278.4 26.7C279.3 25.5 279.7 24.1 279.7 22.6C279.7 20.9 279.3 19.6 278.4 18.6C277.5 17.6 276.4 16.9 275.2 16.5C274 16.1 272.4 15.6 270.5 15.2C268.8 14.9 267.5 14.5 266.7 14.2C265.9 13.9 265.5 13.3 265.5 12.6C265.5 11.9 265.8 11.4 266.5 11C267.2 10.6 268.4 10.7 269.8 10.7C272.4 10.7 275.1 10.7 278.2 10.8L280.5 5.60001C278.4 5.60001 277.5 5.60001 274.9 5.50001C272.6 5.50001 271.6 5.40001 270 5.40001C267.8 5.40001 265.8 5.40001 264.1 6.10001C262.4 6.80001 261.2 7.70001 260.3 8.90001C259.4 10.1 259 11.5 259 13C259 14.7 259.4 16.1 260.3 17.1C261.2 18.1 262.3 18.8 263.5 19.3C264.7 19.7 266.3 20.2 268.2 20.6C269.9 20.9 271.2 21.3 272 21.6C272.8 22 273.2 22.5 273.2 23.2C273.2 23.9 272.9 24.4 272.2 24.8C271.6 25.2 270.5 25.4 269.1 25.4C267.6 25.4 266.1 25.2 264.6 24.8C263.1 24.4 261.8 23.8 260.7 23.1L258.4 28.1C259.5 28.9 261.1 29.5 262.9 30C264.6 30.3 266.6 30.5 268.6 30.5ZM244.4 25C243.1 25 241.9 24.7 240.8 24.1C239.7 23.5 238.9 22.6 238.3 21.5C237.7 20.4 237.4 19.2 237.4 17.8C237.4 16.4 237.7 15.2 238.3 14.1C238.9 13 239.7 12.1 240.8 11.5C241.9 10.9 243.1 10.6 244.4 10.6C245.7 10.6 246.9 10.9 248 11.5C249.1 12.1 249.9 13 250.5 14.1C251.1 15.2 251.4 16.4 251.4 17.8C251.4 19.2 251.1 20.4 250.5 21.5C249.9 22.6 249.1 23.5 248 24.1C246.9 24.7 245.7 25 244.4 25ZM244.4 30.5C247 30.5 249.4 30 251.5 28.9C253.6 27.8 255.2 26.3 256.4 24.4C257.6 22.5 258.2 20.3 258.2 17.9C258.2 15.5 257.6 13.3 256.4 11.4C255.2 9.50001 253.6 7.90001 251.5 6.80001C249.4 5.70001 247.1 5.20001 244.4 5.20001C241.8 5.20001 239.4 5.70001 237.3 6.80001C235.2 7.90001 233.6 9.40001 232.4 11.4C231.2 13.3 230.6 15.5 230.6 17.9C230.6 20.3 231.2 22.5 232.4 24.4C233.6 26.3 235.2 27.8 237.3 28.9C239.4 30 241.8 30.5 244.4 30.5ZM221.2 0.200012V9.00001H207.6V0.200012H200.7V30.1H207.6V14.8H221.2V30.1H228.1V0.200012H221.2ZM164.2 30.5C167.8 30.5 170.7 29.5 172.7 27.6C174.7 25.6 175.8 22.9 175.8 19.5V5.50001H169.1V19.2C169.1 21.1 168.7 22.5 167.9 23.5C167.1 24.5 165.9 25 164.3 25C162.7 25 161.4 24.5 160.6 23.5C159.8 22.5 159.3 21.1 159.3 19.2V5.50001H152.6V19.5C152.6 22.9 153.6 25.6 155.7 27.6C157.7 29.6 160.6 30.5 164.2 30.5ZM140.6 30.5C142.9 30.5 145 30.1 146.7 29.4C148.4 28.7 149.9 27.5 151.2 26L146.8 22C145.2 24 143.2 24.9 140.8 24.9C139.4 24.9 138.2 24.6 137.1 24C136 23.4 135.2 22.6 134.5 21.5C133.9 20.4 133.6 19.1 133.6 17.7C133.6 15.5 134.3 13.8 135.6 12.5C137 11.2 138.7 10.5 140.7 10.5C143.1 10.5 145.1 11.5 146.7 13.4L151.1 9.40001C149.8 7.80001 148.4 6.70001 146.6 6.00001C144.9 5.30001 142.8 4.90001 140.5 4.90001C137.9 4.90001 135.6 5.40001 133.5 6.50001C131.4 7.60001 129.8 9.10001 128.6 11.1C127.4 13 126.8 15.2 126.8 17.6C126.8 20 127.4 22.2 128.6 24.1C129.8 26 131.4 27.5 133.5 28.6C135.7 30 138 30.5 140.6 30.5ZM113.4 30.5C117 30.5 119.9 29.5 121.9 27.6C123.9 25.6 125 22.9 125 19.5V5.50001H118.3V19.2C118.3 21.1 117.9 22.5 117.1 23.5C116.3 24.5 115.1 25 113.5 25C111.9 25 110.6 24.5 109.8 23.5C109 22.5 108.5 21.1 108.5 19.2V5.50001H101.8V19.5C101.8 22.9 102.8 25.6 104.9 27.6C106.9 29.6 109.7 30.5 113.4 30.5ZM79.3 30.1H101.2V24.5H86.2V0.200012H79.3V30.1V30.1Z" fill="#18507F"/>
<path d="M196.9 10.6V5.50002C194.7 5.50002 190.6 5.40002 188.9 5.40002C186.7 5.40002 184.7 5.40002 183 6.10002C181.3 6.80002 180.1 7.70002 179.2 8.90002C178.3 10.1 177.9 11.5 177.9 13C177.9 14.7 178.3 16.1 179.2 17.1C180.1 18.1 181.2 18.8 182.4 19.3C183.6 19.7 185.2 20.2 187.1 20.6C188.8 20.9 190.1 21.3 190.9 21.6C191.7 22 192.1 22.5 192.1 23.2C192.1 23.9 191.8 24.4 191.1 24.8C190.5 25.2 189.4 25.4 188 25.4C186.5 25.4 185 25.2 183.5 24.8C182 24.4 180.7 23.8 179.6 23.1L177.3 28.1C178.4 28.9 180 29.5 181.8 30C183.7 30.5 185.6 30.7 187.6 30.7C189.9 30.7 191.9 30.4 193.6 29.7C195.3 29 196.6 28.1 197.4 26.9C198.3 25.7 198.7 24.3 198.7 22.8C198.7 21.1 198.3 19.8 197.4 18.8C196.5 17.8 195.4 17.1 194.2 16.7C193 16.3 191.4 15.8 189.5 15.4C187.8 15.1 186.5 14.7 185.7 14.4C184.9 14.1 184.5 13.5 184.5 12.8C184.5 12.1 184.8 11.6 185.5 11.2C186.1 10.8 187.3 10.9 188.6 10.9H196.9V10.6Z" fill="#18507F"/>
<path d="M187.8 5.40002L186 10.6H197V5.40002H187.8Z" fill="#18507F"/>
<path d="M0 0V44.9H57V0H0ZM30.1 37.4H6.4V7.5H13.3V31.7H30.1V37.4ZM50.6 37.4H43.7V22.1H30.1V27.1H23.2V7.5H30.1V16.3H43.7V7.5H50.6V37.4Z" fill="#18507F"/>
</svg>
